<?xml version="1.0" encoding="utf-8"?>
<!-- Generator: Adobe Illustrator 22.0.1, SVG Export Plug-In . SVG Version: 6.00 Build 0)  -->
<svg version="1.1" id="Capa_1" xmlns="http://www.w3.org/2000/svg" xmlns:xlink="http://www.w3.org/1999/xlink" x="0px" y="0px"
	 viewBox="0 0 150 150" style="enable-background:new 0 0 150 150;" xml:space="preserve">
<style type="text/css">
	.st0{fill:#636363;}
	.st1{fill:#333333;}
	.st2{fill:none;stroke:#FF7BAC;stroke-width:5;stroke-miterlimit:10;}
	.st3{fill:#FF7BAC;}
	.st4{fill:none;stroke:#FF7BAC;stroke-width:5;stroke-linecap:round;stroke-linejoin:round;stroke-miterlimit:10;}
	.st5{fill:none;stroke:#FF7BAC;stroke-width:4;stroke-miterlimit:10;stroke-dasharray:7;}
	.st6{fill:none;stroke:#FF7BAC;stroke-width:5.7711;stroke-linecap:round;stroke-linejoin:round;stroke-miterlimit:10;}
	.st7{fill:none;stroke:#FF7BAC;stroke-width:4.6169;stroke-miterlimit:10;stroke-dasharray:8.0795;}
	.st8{fill:#FFFFFF;}
	.st9{fill:#ffd5d5;}
	.st10{fill:#717171;}
	.st11{fill:#464646;}
	.st12{fill:none;stroke:#464646;stroke-width:3;stroke-linecap:round;stroke-linejoin:round;stroke-miterlimit:10;}
	.st13{fill:none;stroke:#717171;stroke-width:1.9304;stroke-miterlimit:10;stroke-dasharray:3.3782;}
</style>
<g>
	<ellipse class="st0" cx="154.9" cy="-493.6" rx="12.9" ry="15"/>
	<ellipse class="st1" cx="117.9" cy="-488.6" rx="12" ry="14"/>
	<ellipse class="st1" cx="191.9" cy="-488.6" rx="12" ry="14"/>
	<path class="st0" d="M184-464.6c-0.7-3.2-2.4-5.5-5.2-7c-4.9-1.7-10.7-2.6-16.6-2l-7.3,11l-7.3-11c-5.9-0.6-11.7,0.3-16.6,2
		c-2.8,1.5-4.5,3.8-5.2,7c-3.4,16.8-1.3,28.5,0,41c1.3,4.6,5.3,7.2,11.4,8l2.1,52c0,7,13.5,8,15.6,2c2.1,6,15.6,5,15.6-2l2.1-52
		c6.2-0.8,10.1-3.4,11.4-8C185.3-436.1,187.5-447.8,184-464.6z"/>
	<path class="st1" d="M219.4-459.9c-0.6-3-2.3-5.3-5-6.7c-4.7-1.6-10.2-2.5-15.9-1.9l-6,9.1c1.7,12.3,0.6,22.1-0.5,31.5
		c-0.2,1.7-0.4,3.3-0.5,5l-0.1,0.7l-0.2,0.6c-1,3.4-3.7,8.9-11.3,11.8l-1.8,46.3c0,1-0.2,2-0.4,2.9c3,4,12.3,3.9,14-0.9
		c2,5.7,14.9,4.8,14.9-1.9l2-49.7c5.9-0.8,9.6-3.3,10.9-7.6C220.6-432.6,222.6-443.8,219.4-459.9z"/>
	<path class="st1" d="M131.9-363.4l-1.8-46.3c-7.6-2.9-10.4-8.4-11.3-11.8l-0.2-0.6l-0.1-0.7c-0.2-1.7-0.4-3.3-0.5-5
		c-1-9.2-2.1-18.7-0.6-30.6l-6.7-10.1c-5.7-0.6-11.1,0.3-15.9,1.9c-2.7,1.4-4.3,3.7-5,6.7c-3.3,16-1.2,27.2,0,39.2
		c1.3,4.4,5,6.8,10.9,7.6l2,49.7c0,6.7,12.9,7.6,14.9,1.9c1.8,5.2,12.4,4.9,14.5-0.1C132-362.1,131.9-362.7,131.9-363.4z"/>
</g>
<path class="st2" d="M316.8-363.6h-45.9c-3.1,0-5.6-2.5-5.6-5.6v-61.6c0-3.1,2.5-5.6,5.6-5.6h45.9c3.1,0,5.6,2.5,5.6,5.6v61.6
	C322.4-366.1,319.9-363.6,316.8-363.6z"/>
<path class="st2" d="M395.6-364.1h-66.5c-3.7,0-6.7-3-6.7-6.7v-46.8c0,0,32-17.5,32-17.5v-35c0,0,48,24.8,48,28.5v70.8
	C402.4-367.2,399.3-364.1,395.6-364.1z"/>
<path class="st2" d="M322.4-420h4.4c8.8-4.8,27.6-15.1,27.6-15.1v-35v-20.2c0-3.1-2.6-5.7-5.7-5.7h-45.6c-3.1,0-5.7,2.6-5.7,5.7
	v53.9h19.4c3.1,0,5.6,2.5,5.6,5.6V-420z"/>
<rect x="311.1" y="-480.1" class="st3" width="10" height="9.5"/>
<rect x="330.9" y="-480.1" class="st3" width="10" height="9.5"/>
<rect x="311.1" y="-460.9" class="st3" width="10" height="9.5"/>
<rect x="330.9" y="-460.9" class="st3" width="10" height="9.5"/>
<rect x="279.4" y="-423.4" class="st3" width="10" height="9.5"/>
<rect x="299.1" y="-423.4" class="st3" width="10" height="9.5"/>
<rect x="279.4" y="-404.9" class="st3" width="10" height="9.5"/>
<rect x="299.1" y="-404.9" class="st3" width="10" height="9.5"/>
<rect x="289.9" y="-390" class="st3" width="10" height="12.2"/>
<rect x="364.9" y="-427.4" class="st3" width="15" height="12.8"/>
<rect x="364.9" y="-406.6" class="st3" width="15" height="12.8"/>
<rect x="341.6" y="-406.6" class="st3" width="15" height="12.8"/>
<g>
	<g>
		<path class="st3" d="M448.7-369.2c-4,0-7.3-0.6-9.6-2.5c-2-1.6-3.1-3.9-3.4-6.9c0.1-18.9,0.9-38.4,7-54.9
			c3.3-8.1,11.1-22.8,26.1-30.7c4.7-2,10.5-3.9,14.8-1.2c3.7,2.3,5.4,7.2,5.6,15.9c0.1,1.7,0,1.7,0,4.4l-5.2,3.5
			c0-2.7-0.1-6-0.1-7.7c-0.2-6.5-1.2-10.3-3.1-11.6c-1.6-1-4.8-0.6-9.5,1.5c-13.3,7.1-20.4,20.5-23.4,27.8
			c-4.6,12.6-6.5,27.9-6.6,52.7c0.2,1.7,0.9,2.5,1.4,2.9c2.9,2.3,11.1,1.2,19.7,0l2.3-0.3c12.1-1.7,17.4-5.1,18.5-21.6
			c0.2-6.4,0.3-11.1,0.5-18.3l5.5-4.4c-0.2,7.2-0.3,16.5-0.6,23c-1.2,17.6-7.1,24.3-23.2,26.6l-2.3,0.3
			C457.5-369.8,452.7-369.2,448.7-369.2z"/>
		<path class="st3" d="M553.9-369.2c4,0,7.3-0.6,9.6-2.5c2-1.6,3.1-3.9,3.4-6.9c-0.1-18.9-0.9-38.4-7-54.9
			c-3.3-8.1-11.1-22.8-26.1-30.7c-4.7-2-10.5-3.9-14.8-1.2c-3.7,2.3-5.4,7.2-5.6,15.9c-0.1,1.7,0,1.7,0,4.4l5.2,3.5
			c0-2.7,0.1-6,0.1-7.7c0.2-6.5,1.2-10.3,3.1-11.6c1.6-1,4.8-0.6,9.5,1.5c13.3,7.1,20.4,20.5,23.4,27.8c4.6,12.6,6.5,27.9,6.6,52.7
			c-0.2,1.7-0.9,2.5-1.4,2.9c-2.9,2.3-11.1,1.2-19.7,0l-2.3-0.3c-12.1-1.7-17.4-5.1-18.5-21.6c-0.2-6.4-0.3-11.1-0.5-18.3l-5.5-4.4
			c0.2,7.2,0.3,16.5,0.6,23c1.2,17.6,7.1,24.3,23.2,26.6l2.3,0.3C545-369.8,549.8-369.2,553.9-369.2z"/>
	</g>
	<g>
		<path class="st3" d="M453.6-404.6c0.5,0,1-0.2,1.4-0.7c6.2-7.6,12.8-14.4,20.1-20.5c0,0,0,0,0,0c6.9-5.9,14.4-11.3,22.8-16.3
			l0.9-0.5v-39.9c0-1-0.8-1.8-1.8-1.8c-1,0-1.8,0.8-1.8,1.8v37.9c-8,4.9-15.2,10.1-21.9,15.8c-6.9,1.6-14.1,0.4-15.2-2.5
			c-0.3-0.9-1.4-1.4-2.3-1.1c-0.9,0.3-1.4,1.4-1.1,2.3c1.4,3.9,6.6,5.6,12.4,5.6c0.4,0,0.9-0.1,1.3-0.1
			c-5.7,5.3-11.1,10.9-16.2,17.2c-0.6,0.8-0.5,1.9,0.3,2.5C452.8-404.8,453.2-404.6,453.6-404.6z"/>
		<path class="st3" d="M527.5-425.9C527.5-425.8,527.5-425.8,527.5-425.9c7.3,6.2,13.9,13,20.1,20.6c0.4,0.4,0.9,0.7,1.4,0.7
			c0.4,0,0.8-0.1,1.1-0.4c0.8-0.6,0.9-1.8,0.3-2.5c-5.1-6.2-10.5-11.9-16.2-17.2c0.4,0,0.9,0.1,1.3,0.1c5.8,0,11-1.8,12.4-5.6
			c0.3-0.9-0.1-2-1.1-2.3c-0.9-0.3-2,0.1-2.3,1.1c-1.1,2.9-8.2,4.1-15.2,2.5c-6.7-5.7-13.9-10.9-21.9-15.8v-37.9
			c0-1-0.8-1.8-1.8-1.8c-1,0-1.8,0.8-1.8,1.8v39.9l0.9,0.5C513.1-437.2,520.6-431.8,527.5-425.9z"/>
		<path class="st3" d="M551.2-394.3c-15.9-19.6-32-33.8-49-43.3c-0.1,0-0.1,0-0.2-0.1c-0.1-0.1-0.2-0.1-0.4-0.1c-0.1,0-0.2,0-0.3,0
			c-0.1,0-0.2,0-0.3,0c-0.1,0-0.3,0.1-0.4,0.1c0,0-0.1,0-0.1,0c-17.1,9.6-33.1,23.7-49,43.3c-0.6,0.8-0.5,1.9,0.3,2.5
			c0.3,0.3,0.7,0.4,1.1,0.4c0.5,0,1-0.2,1.4-0.7c4.8-5.9,9.6-11.2,14.4-16.1c0.1,4.3,0.6,9,2.2,13.1c0.3,0.7,1,1.1,1.7,1.1
			c0.2,0,0.4,0,0.7-0.1c0.9-0.4,1.4-1.4,1-2.3c-1.9-4.7-2-10.6-1.9-15.4c9.5-9.1,19.1-16.5,29.1-22.2c10,5.7,19.6,13,29.1,22.2
			c0.1,4.8,0,10.7-1.9,15.4c-0.4,0.9,0.1,2,1,2.3c0.2,0.1,0.4,0.1,0.7,0.1c0.7,0,1.4-0.4,1.7-1.1c1.6-4.1,2.1-8.8,2.2-13.1
			c4.8,4.9,9.6,10.2,14.4,16.1c0.4,0.4,0.9,0.7,1.4,0.7c0.4,0,0.8-0.1,1.1-0.4C551.7-392.4,551.8-393.6,551.2-394.3z"/>
	</g>
</g>
<g>
	<path class="st3" d="M666.3-379.1c-0.4-3.8-0.8-7.5-1.2-11.1c-1.9-17-3.5-31.8-3.5-45.2c0-13.6-2.3-17.1-6.8-24.2l-1.7-2.6
		c-7-12.2-21.5-28.7-36.2-41.2l3.7-4.3c15,12.9,30,30,37.3,42.6l1.6,2.4c4.8,7.5,7.7,12,7.7,27.2c0.1,13.1,1.7,27.7,3.5,44.6
		c0.4,3.6,0.8,7.3,1.2,11.1L666.3-379.1z"/>
	<path class="st3" d="M622.6-378.1c-5.5-17.7-8.9-33-8.1-49.9c0.8-10.2-2.7-14.5-8.5-18.2l-29.5-16.4l2.7-4.9l29.6,16.5
		c6.3,3.9,12.4,9.6,11.3,23.4c-0.8,16,2.6,30.7,7.9,47.9L622.6-378.1z"/>
	<path class="st3" d="M589.9-495.3l8.5-7.5c17,15.4,30.9,29.5,41.2,42.2c5.8,8,5.8,15.2,2.9,21.8c-5.7,11.2-22,3.1-16.6-6.3
		c2.8-5,4.4-9.4,0-15.1C614.3-474.9,603-485.9,589.9-495.3z"/>
	<path class="st3" d="M647-452.6c-1.9-2.5,2.2-6.4,5.3-1.3c2.4,3.2,2.9,6.7,1.6,10.7c-1.9,4.4-6.1,4-5.6,0.9
		C649.2-445.2,649.3-449.5,647-452.6z"/>
	<path class="st3" d="M636.1-418.9c-9.2,0.7-10.1-10.4,9.6-12.9c8.2-0.7,10.8,3.8,10.8,11.8l0.5,9.9l-9.4,9.9
		c0-8.4-1.4-13.1-5.2-15.8l0.5,12.2l-5.2,5.2L636.1-418.9z"/>
	<path class="st3" d="M637.8-391.6l5.6-5.9c0.2,10,0.9,18.7,2.8,24.7h-6.4C638.7-377.1,638.2-383.3,637.8-391.6z"/>
	<polygon class="st3" points="648.6,-394.2 658.7,-404.3 659.9,-372.8 649.3,-372.8 	"/>
</g>
<g>
	<path class="st4" d="M718.9-508.8l2.5,36c-8.5,16.5-1,31.5,13,37.5c16,4.1,30.5-3,34-20"/>
	<path class="st4" d="M713.9-362.8l12-27c2.4-5.9,3.9-13.3,3.5-23.5l-4.5-27"/>
	<path class="st5" d="M705.7-373.6l7.2-16.1c2.4-5.9,3.9-13.3,3.5-23.5l-4.5-27"/>
	<path class="st4" d="M828.7-508.8l-2.5,36c8.5,16.5,1,31.5-13,37.5c-16,4.1-30.5-3-34-20"/>
	<path class="st4" d="M833.7-362.8l-12-27c-2.4-5.9-3.9-13.3-3.5-23.5l4.5-27"/>
	<path class="st5" d="M841.9-373.6l-7.2-16.1c-2.4-5.9-3.9-13.3-3.5-23.5l4.5-27"/>
	<circle class="st3" cx="773.9" cy="-378.8" r="3"/>
	<circle class="st3" cx="739.9" cy="-459.3" r="3"/>
	<circle class="st3" cx="808.9" cy="-459.3" r="3"/>
</g>
<g>
	<circle class="st3" cx="769.6" cy="-240.2" r="3.5"/>
	<g>
		<path class="st6" d="M705.9-221.8l13.9-31.2c2.8-6.9,4.5-15.3,4-27.1l-6.1-39.5"/>
		<path class="st7" d="M696.5-234.3l8.3-18.6c2.8-6.9,4.5-15.3,4-27.1l-5.2-31.2"/>
		<path class="st7" d="M842.7-234.3l-8.3-18.6c-2.8-6.9-4.5-15.3-4-27.1l5.2-31.2"/>
		<path class="st6" d="M832.6-221.8l-13.9-31.2c-2.8-6.9-4.5-15.3-4-27.1l5.9-39.1"/>
	</g>
</g>
<g>
	<g>
		<circle class="st8" cx="75" cy="75" r="71.2"/>
		<path class="st9" d="M75,7.5c37.2,0,67.5,30.3,67.5,67.5s-30.3,67.5-67.5,67.5S7.5,112.2,7.5,75S37.8,7.5,75,7.5 M75,0
			C33.6,0,0,33.6,0,75s33.6,75,75,75s75-33.6,75-75S116.4,0,75,0L75,0z"/>
	</g>
	<g>
		<path class="st10" d="M97.2,107.2c-0.2-2-0.4-4-0.6-5.9c-1-9-1.8-16.7-1.9-23.8c0-7.1-1.2-9-3.6-12.7l-0.9-1.4
			C86.5,57,78.9,48.3,71.2,41.7l1.9-2.3c7.9,6.8,15.8,15.8,19.7,22.5l0.8,1.3c2.5,3.9,4.1,6.3,4.1,14.3c0,6.9,0.9,14.6,1.8,23.5
			c0.2,1.9,0.4,3.9,0.6,5.9L97.2,107.2z"/>
		<path class="st10" d="M74.2,107.8c-2.9-9.4-4.7-17.4-4.3-26.3c0.4-5.4-1.4-7.7-4.5-9.6l-15.6-8.6l1.4-2.6l15.6,8.7
			c3.3,2,6.5,5.1,6,12.3c-0.4,8.4,1.4,16.2,4.2,25.2L74.2,107.8z"/>
		<path class="st11" d="M56.9,45.9l4.5-4c9,8.1,16.3,15.6,21.7,22.3c3.1,4.2,3,8,1.6,11.5c-3,5.9-11.6,1.7-8.8-3.3
			c1.5-2.6,2.3-5,0-7.9C69.8,56.7,63.9,50.9,56.9,45.9z"/>
		<path class="st11" d="M87,68.5c-1-1.3,1.2-3.3,2.8-0.7c1.3,1.7,1.5,3.5,0.8,5.6c-1,2.3-3.2,2.1-3,0.5C88.2,72.4,88.3,70.1,87,68.5
			z"/>
		<path class="st11" d="M81.3,86.2c-4.8,0.4-5.3-5.5,5.1-6.8c4.3-0.4,5.7,2,5.7,6.2l0.2,5.2l-5,5.2c0-4.4-0.7-6.9-2.7-8.3l0.2,6.4
			l-2.7,2.7L81.3,86.2z"/>
		<path class="st11" d="M82.2,100.6l3-3.1c0.1,5.3,0.5,9.8,1.5,13h-3.3C82.7,108.3,82.4,105,82.2,100.6z"/>
		<polygon class="st11" points="87.9,99.3 93.2,93.9 93.8,110.5 88.3,110.5 		"/>
	</g>
</g>
<g>
	<g>
		<circle class="st8" cx="454.5" cy="75" r="71.2"/>
		<path class="st9" d="M454.5,7.5C491.7,7.5,522,37.8,522,75s-30.3,67.5-67.5,67.5S387,112.2,387,75S417.2,7.5,454.5,7.5 M454.5,0
			c-41.4,0-75,33.6-75,75s33.6,75,75,75s75-33.6,75-75S495.9,0,454.5,0L454.5,0z"/>
	</g>
	<g>
		<g>
			<path class="st11" d="M425.4,104.5c-2.2,0-4-0.4-5.3-1.4c-1.1-0.9-1.7-2.1-1.9-3.8c0-10.4,0.5-21.2,3.9-30.3
				c1.8-4.5,6.1-12.6,14.4-17c2.6-1.1,5.8-2.2,8.2-0.6c2,1.3,3,4,3.1,8.8c0,1,0,0.9,0,2.4l-2.9,1.9c0-1.5,0-3.3-0.1-4.3
				c-0.1-3.6-0.7-5.7-1.7-6.4c-0.9-0.6-2.6-0.3-5.3,0.8c-7.4,3.9-11.3,11.3-13,15.4c-2.5,7-3.6,15.4-3.7,29.1
				c0.1,0.9,0.5,1.4,0.7,1.6c1.6,1.3,6.1,0.7,10.9,0l1.3-0.2c6.7-1,9.6-2.8,10.2-11.9c0.1-3.5,0.2-6.2,0.3-10.1l3-2.4
				c-0.1,4-0.2,9.1-0.3,12.7c-0.7,9.7-3.9,13.5-12.8,14.7l-1.3,0.2C430.3,104.1,427.6,104.5,425.4,104.5z"/>
			<path class="st11" d="M483.5,104.5c2.2,0,4-0.4,5.3-1.4c1.1-0.9,1.7-2.1,1.9-3.8c0-10.4-0.5-21.2-3.9-30.3
				c-1.8-4.5-6.1-12.6-14.4-17c-2.6-1.1-5.8-2.2-8.2-0.6c-2,1.3-3,4-3.1,8.8c0,1,0,0.9,0,2.4l2.9,1.9c0-1.5,0-3.3,0.1-4.3
				c0.1-3.6,0.7-5.7,1.7-6.4c0.9-0.6,2.6-0.3,5.3,0.8c7.4,3.9,11.3,11.3,13,15.4c2.5,7,3.6,15.4,3.7,29.1c-0.1,0.9-0.5,1.4-0.7,1.6
				c-1.6,1.3-6.1,0.7-10.9,0l-1.3-0.2c-6.7-1-9.6-2.8-10.2-11.9c-0.1-3.5-0.2-6.2-0.3-10.1l-3-2.4c0.1,4,0.2,9.1,0.3,12.7
				c0.7,9.7,3.9,13.5,12.8,14.7l1.3,0.2C478.6,104.1,481.3,104.5,483.5,104.5z"/>
		</g>
		<g>
			<path class="st10" d="M428.1,84.9c0.3,0,0.6-0.1,0.8-0.4c3.4-4.2,7.1-7.9,11.1-11.4c0,0,0,0,0,0c3.8-3.3,8-6.3,12.6-9l0.5-0.3
				V41.8c0-0.5-0.4-1-1-1s-1,0.4-1,1v20.9c-4.4,2.7-8.4,5.6-12.1,8.7c-3.8,0.9-7.8,0.2-8.4-1.4c-0.2-0.5-0.8-0.8-1.3-0.6
				c-0.5,0.2-0.8,0.8-0.6,1.3c0.8,2.1,3.7,3.1,6.9,3.1c0.2,0,0.5,0,0.7,0c-3.2,2.9-6.1,6-9,9.5c-0.3,0.4-0.3,1.1,0.1,1.4
				C427.6,84.8,427.9,84.9,428.1,84.9z"/>
			<path class="st10" d="M469,73.1C469,73.2,469,73.2,469,73.1c4,3.4,7.7,7.2,11.1,11.4c0.2,0.2,0.5,0.4,0.8,0.4
				c0.2,0,0.4-0.1,0.6-0.2c0.4-0.3,0.5-1,0.1-1.4c-2.8-3.4-5.8-6.6-9-9.5c0.2,0,0.5,0,0.7,0c3.2,0,6.1-1,6.9-3.1
				c0.2-0.5-0.1-1.1-0.6-1.3c-0.5-0.2-1.1,0.1-1.3,0.6c-0.6,1.6-4.5,2.3-8.4,1.4c-3.7-3.1-7.7-6-12.1-8.7V41.8c0-0.5-0.4-1-1-1
				s-1,0.4-1,1v22.1l0.5,0.3C461,66.9,465.1,69.9,469,73.1z"/>
			<path class="st10" d="M482.1,90.6c-8.8-10.8-17.7-18.7-27.1-24c0,0-0.1,0-0.1,0c-0.1,0-0.1-0.1-0.2-0.1c-0.1,0-0.1,0-0.2,0
				c-0.1,0-0.1,0-0.2,0c-0.1,0-0.1,0-0.2,0.1c0,0-0.1,0-0.1,0c-9.4,5.3-18.3,13.1-27.1,24c-0.3,0.4-0.3,1.1,0.1,1.4
				c0.2,0.1,0.4,0.2,0.6,0.2c0.3,0,0.6-0.1,0.8-0.4c2.6-3.3,5.3-6.2,8-8.9c0,2.4,0.3,5,1.2,7.2c0.2,0.4,0.5,0.6,0.9,0.6
				c0.1,0,0.2,0,0.4-0.1c0.5-0.2,0.8-0.8,0.6-1.3c-1-2.6-1.1-5.8-1-8.5c5.2-5.1,10.6-9.1,16.1-12.3c5.5,3.1,10.8,7.2,16.1,12.3
				c0.1,2.7,0,5.9-1,8.5c-0.2,0.5,0,1.1,0.6,1.3c0.1,0,0.2,0.1,0.4,0.1c0.4,0,0.8-0.2,0.9-0.6c0.9-2.2,1.1-4.9,1.2-7.2
				c2.7,2.7,5.3,5.7,8,8.9c0.2,0.2,0.5,0.4,0.8,0.4c0.2,0,0.4-0.1,0.6-0.2C482.3,91.6,482.4,91,482.1,90.6z"/>
		</g>
	</g>
</g>
<g>
	<g>
		<circle class="st8" cx="622.9" cy="75" r="71.2"/>
		<path class="st9" d="M622.9,7.5c37.2,0,67.5,30.3,67.5,67.5s-30.3,67.5-67.5,67.5s-67.5-30.3-67.5-67.5S585.7,7.5,622.9,7.5
			 M622.9,0c-41.4,0-75,33.6-75,75s33.6,75,75,75c41.4,0,75-33.6,75-75S664.4,0,622.9,0L622.9,0z"/>
	</g>
	<g>
		<path class="st12" d="M596.4,39.8l1.2,17.4c-4.1,8-0.5,15.2,6.3,18.1c7.7,2,14.7-1.4,16.4-9.7"/>
		<path class="st12" d="M594,110.2l5.8-13c1.2-2.9,1.9-6.4,1.7-11.3l-2.2-13"/>
		<path class="st13" d="M590.1,105l3.5-7.8c1.2-2.9,1.9-6.4,1.7-11.3l-2.2-13"/>
		<path class="st12" d="M649.4,39.8l-1.2,17.4c4.1,8,0.5,15.2-6.3,18.1c-7.7,2-14.7-1.4-16.4-9.7"/>
		<path class="st12" d="M651.9,110.2l-5.8-13c-1.2-2.9-1.9-6.4-1.7-11.3l2.2-13"/>
		<path class="st13" d="M655.8,105l-3.5-7.8c-1.2-2.9-1.9-6.4-1.7-11.3l2.2-13"/>
		<circle class="st10" cx="623" cy="102.5" r="1.4"/>
		<circle class="st10" cx="606.6" cy="63.7" r="1.4"/>
		<circle class="st10" cx="639.9" cy="63.7" r="1.4"/>
	</g>
</g>
<g>
	<g>
		<circle class="st8" cx="804.8" cy="75" r="71.2"/>
		<path class="st9" d="M804.8,7.5c37.2,0,67.5,30.3,67.5,67.5s-30.3,67.5-67.5,67.5s-67.5-30.3-67.5-67.5S767.6,7.5,804.8,7.5
			 M804.8,0c-41.4,0-75,33.6-75,75s33.6,75,75,75c41.4,0,75-33.6,75-75S846.2,0,804.8,0L804.8,0z"/>
	</g>
	<g>
		<ellipse class="st11" cx="804.9" cy="47.4" rx="5.9" ry="6.8"/>
		<ellipse class="st10" cx="788.1" cy="49.7" rx="5.5" ry="6.4"/>
		<ellipse class="st10" cx="821.8" cy="49.7" rx="5.5" ry="6.4"/>
		<path class="st11" d="M818.2,60.6c-0.3-1.4-1.1-2.5-2.4-3.2c-2.2-0.8-4.9-1.2-7.6-0.9l-3.3,5l-3.3-5c-2.7-0.3-5.3,0.1-7.6,0.9
			c-1.3,0.7-2.1,1.7-2.4,3.2c-1.6,7.7-0.6,13,0,18.7c0.6,2.1,2.4,3.3,5.2,3.6l0.9,23.7c0,3.2,6.1,3.6,7.1,0.9
			c0.9,2.7,7.1,2.3,7.1-0.9L813,83c2.8-0.4,4.6-1.6,5.2-3.6C818.8,73.6,819.8,68.3,818.2,60.6z"/>
		<path class="st10" d="M834.3,62.8c-0.3-1.4-1-2.4-2.3-3c-2.1-0.7-4.6-1.1-7.2-0.9l-2.7,4.2c0.8,5.6,0.3,10.1-0.2,14.4
			c-0.1,0.8-0.2,1.5-0.2,2.3l0,0.3l-0.1,0.3c-0.5,1.6-1.7,4.1-5.2,5.4l-0.8,21.1c0,0.5-0.1,0.9-0.2,1.3c1.4,1.8,5.6,1.8,6.4-0.4
			c0.9,2.6,6.8,2.2,6.8-0.9l0.9-22.6c2.7-0.4,4.4-1.5,5-3.5C834.9,75.2,835.8,70.1,834.3,62.8z"/>
		<path class="st10" d="M794.5,106.8l-0.8-21.1c-3.5-1.3-4.7-3.8-5.2-5.4l-0.1-0.3l0-0.3c-0.1-0.8-0.2-1.5-0.2-2.3
			c-0.5-4.2-1-8.5-0.3-13.9l-3-4.6c-2.6-0.3-5.1,0.1-7.2,0.9c-1.2,0.7-2,1.7-2.3,3c-1.5,7.3-0.6,12.4,0,17.9c0.6,2,2.3,3.1,5,3.5
			l0.9,22.6c0,3,5.9,3.5,6.8,0.9c0.8,2.4,5.7,2.2,6.6,0C794.5,107.4,794.5,107.1,794.5,106.8z"/>
	</g>
</g>
<g>
	<g>
		<circle class="st8" cx="981.2" cy="75" r="71.2"/>
		<path class="st9" d="M981.2,7.5c37.2,0,67.5,30.3,67.5,67.5s-30.3,67.5-67.5,67.5s-67.5-30.3-67.5-67.5S943.9,7.5,981.2,7.5
			 M981.2,0c-41.4,0-75,33.6-75,75s33.6,75,75,75c41.4,0,75-33.6,75-75S1022.6,0,981.2,0L981.2,0z"/>
	</g>
	<g>
		<path class="st11" d="M992.2,55.3v-8.5c0-2.3-1.8-4.1-4.1-4.1h-21.3c-2.3,0-4.1,1.8-4.1,4.1v23.7h-10.9c-2.2,0-4.1,1.8-4.1,4.1
			v28.8c0,2.2,1.8,4.1,4.1,4.1l58.3-0.2c2.5,0,4.6-2.1,4.6-4.6V69.5C1014.6,68.5,1014.6,66.9,992.2,55.3z M965.6,46.7
			c0-0.7,0.5-1.2,1.2-1.2h21.3c0.7,0,1.2,0.5,1.2,1.2v7v17.9l-11.8,6.5h-0.2v-3.6c0-2.2-1.8-4.1-4.1-4.1h-7.6V46.7z M974.3,103.3
			c0,0.6-0.5,1.1-1.1,1.1h-21.4c-0.6,0-1.1-0.5-1.1-1.1V74.5c0-0.6,0.5-1.1,1.1-1.1h10.9h10.5c0.6,0,1.1,0.5,1.1,1.1v6.2V81v21.5
			V103.3z M1011.7,102.5c0,0.9-0.8,1.7-1.7,1.7h-31.1c-0.9,0-1.7-0.8-1.7-1.7v-21c0.3-0.1,0.6-0.3,1-0.5h0l12.3-6.7
			c0.6-0.3,0.9-0.5,0.9-0.5l0.8-0.4V58.6c8.9,4.7,17.9,9.8,19.5,11.3V102.5z"/>
		<rect x="970.5" y="51.5" class="st10" width="4.7" height="4.4"/>
		<rect x="979.8" y="51.5" class="st10" width="4.7" height="4.4"/>
		<rect x="970.5" y="60.5" class="st10" width="4.7" height="4.4"/>
		<rect x="979.8" y="60.5" class="st10" width="4.7" height="4.4"/>
		<rect x="955.7" y="78" class="st10" width="4.7" height="4.4"/>
		<rect x="964.9" y="78" class="st10" width="4.7" height="4.4"/>
		<rect x="955.7" y="86.7" class="st10" width="4.7" height="4.4"/>
		<rect x="964.9" y="86.7" class="st10" width="4.7" height="4.4"/>
		<rect x="960.6" y="93.6" class="st10" width="4.7" height="5.7"/>
		<rect x="995.6" y="76.1" class="st10" width="7" height="6"/>
		<rect x="995.6" y="85.8" class="st10" width="7" height="6"/>
		<rect x="984.8" y="85.8" class="st10" width="7" height="6"/>
	</g>
</g>
</svg>
