<?xml version="1.0" encoding="utf-8"?>
<!-- Generator: Adobe Illustrator 22.0.1, SVG Export Plug-In . SVG Version: 6.00 Build 0)  -->
<svg version="1.1" id="Capa_1" xmlns="http://www.w3.org/2000/svg" xmlns:xlink="http://www.w3.org/1999/xlink" x="0px" y="0px"
	 viewBox="0 0 404.9 61.5" style="enable-background:new 0 0 404.9 61.5;" xml:space="preserve">
<style type="text/css">
	.st0{fill:#FF9595;}
	.st1{fill:#ABABAB;}
	.st2{fill:#414141;}
</style>
<g>
	<g>
		<path class="st0" d="M13.4,22.8l-6.2,6.3v9.9H0V0.3h7.2v19.9L26.4,0.3h8.1L18.2,17.6l17.3,21.5h-8.4L13.4,22.8z"/>
		<path class="st0" d="M40.4,0.3h7.2v38.8h-7.2V0.3z"/>
		<path class="st0" d="M92.6,0.3v38.8h-5.9L65.3,12.8v26.3h-7.2V0.3h5.9l21.4,26.3V0.3H92.6z"/>
		<path class="st0" d="M132.2,33.1v6H103V0.3h28.3v6h-21.1v10.1H129v5.9h-18.7v10.7H132.2z"/>
		<path class="st1" d="M141.8,0.3h15.4c4,0,7.6,0.8,10.7,2.5c3.1,1.7,5.6,4,7.3,6.9c1.7,2.9,2.6,6.3,2.6,10c0,3.7-0.9,7.1-2.6,10
			c-1.7,2.9-4.2,5.2-7.3,6.9c-3.1,1.7-6.7,2.5-10.7,2.5h-15.4V0.3z M156.9,36.5c3.6,0,6.7-0.7,9.5-2.1c2.7-1.4,4.8-3.4,6.3-6
			c1.5-2.6,2.2-5.5,2.2-8.8c0-3.3-0.7-6.2-2.2-8.8c-1.5-2.6-3.6-4.5-6.3-6c-2.7-1.4-5.9-2.1-9.5-2.1h-12.3v33.7H156.9z"/>
		<path class="st1" d="M191.3,35.1c-2.7-2.8-4.1-7-4.1-12.5V0.3h2.8v22.2c0,4.8,1.1,8.3,3.3,10.7c2.2,2.4,5.3,3.5,9.5,3.5
			c4.1,0,7.2-1.2,9.4-3.5c2.2-2.4,3.3-5.9,3.3-10.7V0.3h2.8v22.4c0,5.5-1.4,9.6-4.1,12.5c-2.7,2.8-6.6,4.3-11.5,4.3
			C197.8,39.4,194,38,191.3,35.1z"/>
		<path class="st1" d="M237.7,36.8c-3.1-1.7-5.5-4.1-7.2-7.1c-1.8-3-2.6-6.3-2.6-10c0-3.7,0.9-7,2.6-10c1.8-3,4.2-5.4,7.2-7.1
			C240.8,0.9,244.2,0,248,0c3.8,0,7.2,0.9,10.3,2.6c3.1,1.7,5.5,4,7.2,7c1.8,3,2.6,6.4,2.6,10.1c0,3.7-0.9,7.1-2.6,10.1
			c-1.8,3-4.2,5.3-7.2,7c-3.1,1.7-6.5,2.6-10.3,2.6C244.2,39.4,240.8,38.5,237.7,36.8z M256.8,34.6c2.6-1.5,4.7-3.5,6.2-6.1
			c1.5-2.6,2.3-5.5,2.3-8.7c0-3.2-0.8-6.1-2.3-8.7c-1.5-2.6-3.6-4.6-6.2-6.1c-2.6-1.5-5.6-2.2-8.8-2.2c-3.3,0-6.2,0.7-8.8,2.2
			c-2.6,1.5-4.7,3.5-6.2,6.1c-1.5,2.6-2.3,5.5-2.3,8.7c0,3.2,0.8,6.1,2.3,8.7c1.5,2.6,3.6,4.7,6.2,6.1c2.6,1.5,5.6,2.2,8.8,2.2
			C251.3,36.8,254.2,36,256.8,34.6z"/>
		<path class="st1" d="M314.7,39.1l-0.1-33.2l-16.2,28.1H297L280.8,6v33.1H278V0.3h2.4l17.4,30l17.4-30h2.3l0.1,38.8H314.7z"/>
		<path class="st1" d="M357.8,36.5v2.6H331V0.3h26v2.6h-23.1v15.3h20.7v2.5h-20.7v15.9H357.8z"/>
		<path class="st1" d="M368.1,0.3h15.4c4,0,7.6,0.8,10.7,2.5c3.1,1.7,5.6,4,7.3,6.9s2.6,6.3,2.6,10c0,3.7-0.9,7.1-2.6,10
			s-4.2,5.2-7.3,6.9c-3.1,1.7-6.7,2.5-10.7,2.5h-15.4V0.3z M383.3,36.5c3.6,0,6.7-0.7,9.5-2.1c2.7-1.4,4.8-3.4,6.3-6
			c1.5-2.6,2.2-5.5,2.2-8.8c0-3.3-0.7-6.2-2.2-8.8c-1.5-2.6-3.6-4.5-6.3-6c-2.7-1.4-5.9-2.1-9.5-2.1H371v33.7H383.3z"/>
	</g>
	<g>
		<path class="st2" d="M8.2,60.6v1h-8V50.3H8v1H1.4v4h5.9v1H1.4v4.2H8.2z"/>
		<path class="st2" d="M18,61.6l-3.7-5l-3.7,5H9.3l4.3-5.8l-4-5.5H11l3.4,4.6l3.4-4.6h1.3l-4,5.5l4.3,5.9H18z"/>
		<path class="st2" d="M28.8,51.3c0.8,0.7,1.2,1.6,1.2,2.9s-0.4,2.2-1.2,2.9s-2,1-3.4,1h-3.1v3.6h-1.2V50.3h4.3
			C26.9,50.3,28,50.6,28.8,51.3z M28,56.3c0.6-0.5,0.9-1.2,0.9-2.1c0-0.9-0.3-1.6-0.9-2.1c-0.6-0.5-1.5-0.7-2.6-0.7h-3V57h3
			C26.5,57,27.4,56.8,28,56.3z"/>
		<path class="st2" d="M40.7,60.6v1h-8V50.3h7.8v1h-6.6v4h5.9v1h-5.9v4.2H40.7z"/>
		<path class="st2" d="M51.3,61.6L48.7,58c-0.3,0-0.6,0-0.9,0h-3.1v3.6h-1.2V50.3h4.3c1.5,0,2.6,0.3,3.4,1s1.2,1.6,1.2,2.9
			c0,0.9-0.2,1.6-0.7,2.2c-0.4,0.6-1.1,1.1-1.9,1.3l2.8,3.9H51.3z M50.3,56.3c0.6-0.5,0.9-1.2,0.9-2.1c0-0.9-0.3-1.6-0.9-2.1
			c-0.6-0.5-1.5-0.7-2.6-0.7h-3V57h3C48.9,57,49.8,56.8,50.3,56.3z"/>
		<path class="st2" d="M57.3,51.3h-4v-1h9.2v1h-4v10.3h-1.2V51.3z"/>
		<path class="st2" d="M66.2,61c-0.9-0.5-1.6-1.2-2.1-2.1s-0.8-1.9-0.8-3c0-1.1,0.3-2.1,0.8-3s1.2-1.6,2.1-2.1
			c0.9-0.5,1.9-0.8,3.1-0.8s2.1,0.2,3,0.7s1.6,1.2,2.1,2.1c0.5,0.9,0.8,1.9,0.8,3c0,1.1-0.3,2.1-0.8,3c-0.5,0.9-1.2,1.6-2.1,2.1
			s-1.9,0.7-3,0.7S67.1,61.5,66.2,61z M71.7,60.1c0.7-0.4,1.3-1,1.7-1.7c0.4-0.7,0.6-1.5,0.6-2.4c0-0.9-0.2-1.7-0.6-2.4
			c-0.4-0.7-1-1.3-1.7-1.7c-0.7-0.4-1.5-0.6-2.4-0.6c-0.9,0-1.7,0.2-2.4,0.6c-0.7,0.4-1.3,1-1.7,1.7c-0.4,0.7-0.6,1.5-0.6,2.4
			c0,0.9,0.2,1.7,0.6,2.4c0.4,0.7,1,1.3,1.7,1.7c0.7,0.4,1.5,0.6,2.4,0.6C70.2,60.7,71,60.5,71.7,60.1z"/>
		<path class="st2" d="M78.6,61.3c-0.8-0.3-1.4-0.6-1.8-1.1l0.5-0.9c0.4,0.4,1,0.7,1.6,1s1.4,0.4,2.1,0.4c1,0,1.8-0.2,2.3-0.6
			s0.8-0.9,0.8-1.5c0-0.5-0.1-0.8-0.4-1.1c-0.3-0.3-0.6-0.5-1-0.6c-0.4-0.1-1-0.3-1.7-0.5c-0.9-0.2-1.5-0.4-2-0.6
			c-0.5-0.2-0.9-0.5-1.3-0.9c-0.4-0.4-0.5-1-0.5-1.7c0-0.6,0.2-1.1,0.5-1.6c0.3-0.5,0.8-0.8,1.4-1.1c0.6-0.3,1.4-0.4,2.3-0.4
			c0.6,0,1.3,0.1,1.9,0.3c0.6,0.2,1.2,0.4,1.6,0.7l-0.4,1c-0.5-0.3-1-0.5-1.5-0.7c-0.5-0.2-1.1-0.2-1.6-0.2c-1,0-1.7,0.2-2.2,0.6
			s-0.8,0.9-0.8,1.5c0,0.5,0.1,0.8,0.4,1.1c0.3,0.3,0.6,0.5,1,0.6c0.4,0.1,1,0.3,1.7,0.5c0.8,0.2,1.5,0.4,2,0.6s1,0.5,1.3,0.9
			c0.4,0.4,0.5,1,0.5,1.6c0,0.6-0.2,1.1-0.5,1.6c-0.3,0.5-0.8,0.8-1.4,1.1c-0.6,0.3-1.4,0.4-2.4,0.4C80.2,61.7,79.4,61.6,78.6,61.3z
			"/>
		<path class="st2" d="M100.2,60.6v1h-8V50.3h7.8v1h-6.6v4h5.9v1h-5.9v4.2H100.2z"/>
		<path class="st2" d="M112.5,50.3v11.4h-1l-7.3-9.2v9.2H103V50.3h1l7.3,9.2v-9.2H112.5z"/>
		<path class="st2" d="M120.5,50.3h1.2v10.3h6.4v1h-7.6V50.3z"/>
		<path class="st2" d="M137.2,58.6h-6.3l-1.4,3h-1.3l5.2-11.4h1.2l5.2,11.4h-1.3L137.2,58.6z M136.8,57.6l-2.7-6.1l-2.7,6.1H136.8z"
			/>
		<path class="st2" d="M153.7,61.6l-2.6-3.7c-0.3,0-0.6,0-0.9,0h-3.1v3.6H146V50.3h4.3c1.5,0,2.6,0.3,3.4,1s1.2,1.6,1.2,2.9
			c0,0.9-0.2,1.6-0.7,2.2c-0.4,0.6-1.1,1.1-1.9,1.3l2.8,3.9H153.7z M152.8,56.3c0.6-0.5,0.9-1.2,0.9-2.1c0-0.9-0.3-1.6-0.9-2.1
			c-0.6-0.5-1.5-0.7-2.6-0.7h-3V57h3C151.3,57,152.2,56.8,152.8,56.3z"/>
		<path class="st2" d="M165.7,60.6v1h-8V50.3h7.8v1h-6.6v4h5.9v1h-5.9v4.2H165.7z"/>
		<path class="st2" d="M178.1,50.3v11.4h-1.2v-5.2h-7.1v5.2h-1.2V50.3h1.2v5.1h7.1v-5.1H178.1z"/>
		<path class="st2" d="M188.9,58.6h-6.3l-1.4,3H180l5.2-11.4h1.2l5.2,11.4h-1.3L188.9,58.6z M188.5,57.6l-2.7-6.1l-2.7,6.1H188.5z"
			/>
		<path class="st2" d="M202.3,56.8c0.4,0.5,0.6,1.1,0.6,1.9c0,1-0.4,1.7-1.1,2.2c-0.7,0.5-1.8,0.8-3.2,0.8h-5.2V50.3h4.9
			c1.3,0,2.2,0.3,2.9,0.8c0.7,0.5,1,1.2,1,2.2c0,0.6-0.2,1.2-0.5,1.6s-0.7,0.8-1.3,1C201.3,55.9,201.9,56.3,202.3,56.8z M194.6,51.3
			v4.1h3.6c0.9,0,1.6-0.2,2.1-0.5c0.5-0.4,0.7-0.9,0.7-1.5c0-0.7-0.2-1.2-0.7-1.5c-0.5-0.4-1.2-0.5-2.1-0.5H194.6z M200.9,60.1
			c0.5-0.3,0.8-0.9,0.8-1.6c0-1.4-1-2.1-3.1-2.1h-4v4.3h4C199.7,60.7,200.4,60.5,200.9,60.1z"/>
		<path class="st2" d="M205.7,50.3h1.2v11.4h-1.2V50.3z"/>
		<path class="st2" d="M210.6,50.3h1.2v10.3h6.4v1h-7.6V50.3z"/>
		<path class="st2" d="M220.1,50.3h1.2v11.4h-1.2V50.3z"/>
		<path class="st2" d="M227.2,51.3h-4v-1h9.2v1h-4v10.3h-1.2V51.3z"/>
		<path class="st2" d="M240.9,58.6h-6.3l-1.4,3H232l5.2-11.4h1.2l5.2,11.4h-1.3L240.9,58.6z M240.5,57.6l-2.7-6.1l-2.7,6.1H240.5z"
			/>
		<path class="st2" d="M247.2,61c-0.9-0.5-1.6-1.2-2.1-2.1s-0.8-1.9-0.8-3c0-1.1,0.3-2.1,0.8-3c0.5-0.9,1.2-1.6,2.1-2.1
			c0.9-0.5,1.9-0.7,3.1-0.7c0.8,0,1.6,0.1,2.3,0.4c0.7,0.3,1.3,0.7,1.8,1.2l-0.8,0.8c-0.9-0.9-2-1.3-3.4-1.3c-0.9,0-1.7,0.2-2.5,0.6
			s-1.3,1-1.7,1.7c-0.4,0.7-0.6,1.5-0.6,2.4c0,0.9,0.2,1.7,0.6,2.4c0.4,0.7,1,1.3,1.7,1.7c0.7,0.4,1.6,0.6,2.5,0.6
			c1.4,0,2.5-0.5,3.4-1.4l0.8,0.8c-0.5,0.5-1.1,1-1.8,1.2c-0.7,0.3-1.5,0.4-2.3,0.4C249.1,61.7,248.1,61.5,247.2,61z"/>
		<path class="st2" d="M257,50.3h1.2v11.4H257V50.3z"/>
		<path class="st2" d="M263.8,61c-0.9-0.5-1.6-1.2-2.1-2.1s-0.8-1.9-0.8-3c0-1.1,0.3-2.1,0.8-3s1.2-1.6,2.1-2.1
			c0.9-0.5,1.9-0.8,3.1-0.8s2.1,0.2,3,0.7s1.6,1.2,2.1,2.1c0.5,0.9,0.8,1.9,0.8,3c0,1.1-0.3,2.1-0.8,3c-0.5,0.9-1.2,1.6-2.1,2.1
			s-1.9,0.7-3,0.7S264.7,61.5,263.8,61z M269.3,60.1c0.7-0.4,1.3-1,1.7-1.7c0.4-0.7,0.6-1.5,0.6-2.4c0-0.9-0.2-1.7-0.6-2.4
			c-0.4-0.7-1-1.3-1.7-1.7c-0.7-0.4-1.5-0.6-2.4-0.6c-0.9,0-1.7,0.2-2.4,0.6c-0.7,0.4-1.3,1-1.7,1.7c-0.4,0.7-0.6,1.5-0.6,2.4
			c0,0.9,0.2,1.7,0.6,2.4c0.4,0.7,1,1.3,1.7,1.7c0.7,0.4,1.5,0.6,2.4,0.6C267.7,60.7,268.5,60.5,269.3,60.1z M268,47.3h1.5l-2.6,2
			h-1.1L268,47.3z"/>
		<path class="st2" d="M285,50.3v11.4h-1l-7.3-9.2v9.2h-1.2V50.3h1l7.3,9.2v-9.2H285z"/>
		<path class="st2" d="M292.9,50.3h4.6c1.2,0,2.3,0.2,3.2,0.7c0.9,0.5,1.6,1.2,2.1,2c0.5,0.9,0.8,1.8,0.8,2.9c0,1.1-0.3,2.1-0.8,2.9
			c-0.5,0.9-1.2,1.5-2.1,2c-0.9,0.5-2,0.7-3.2,0.7h-4.6V50.3z M297.5,60.6c1,0,1.9-0.2,2.6-0.6c0.7-0.4,1.3-0.9,1.7-1.6
			c0.4-0.7,0.6-1.5,0.6-2.4c0-0.9-0.2-1.7-0.6-2.4c-0.4-0.7-1-1.2-1.7-1.6c-0.7-0.4-1.6-0.6-2.6-0.6h-3.4v9.3H297.5z"/>
		<path class="st2" d="M314.4,60.6v1h-8V50.3h7.8v1h-6.6v4h5.9v1h-5.9v4.2H314.4z"/>
		<path class="st2" d="M323.7,51.3h-4v-1h9.2v1h-4v10.3h-1.2V51.3z"/>
		<path class="st2" d="M331.7,60.5c-0.8-0.8-1.2-2.1-1.2-3.7v-6.5h1.2v6.5c0,1.3,0.3,2.3,0.9,3c0.6,0.6,1.5,1,2.6,1
			c1.1,0,2-0.3,2.6-1c0.6-0.6,0.9-1.6,0.9-3v-6.5h1.2v6.5c0,1.6-0.4,2.8-1.2,3.7c-0.8,0.8-2,1.3-3.4,1.3
			C333.7,61.7,332.5,61.3,331.7,60.5z"/>
		<path class="st2" d="M348.4,61.3c-0.8-0.3-1.4-0.6-1.8-1.1l0.5-0.9c0.4,0.4,1,0.7,1.6,1s1.4,0.4,2.1,0.4c1,0,1.8-0.2,2.3-0.6
			s0.8-0.9,0.8-1.5c0-0.5-0.1-0.8-0.4-1.1c-0.3-0.3-0.6-0.5-1-0.6s-1-0.3-1.7-0.5c-0.9-0.2-1.5-0.4-2-0.6c-0.5-0.2-0.9-0.5-1.3-0.9
			c-0.4-0.4-0.5-1-0.5-1.7c0-0.6,0.2-1.1,0.5-1.6c0.3-0.5,0.8-0.8,1.4-1.1c0.6-0.3,1.4-0.4,2.3-0.4c0.6,0,1.3,0.1,1.9,0.3
			c0.6,0.2,1.2,0.4,1.6,0.7l-0.4,1c-0.5-0.3-1-0.5-1.5-0.7c-0.5-0.2-1.1-0.2-1.6-0.2c-1,0-1.7,0.2-2.2,0.6s-0.8,0.9-0.8,1.5
			c0,0.5,0.1,0.8,0.4,1.1c0.3,0.3,0.6,0.5,1,0.6c0.4,0.1,1,0.3,1.7,0.5c0.8,0.2,1.5,0.4,2,0.6c0.5,0.2,1,0.5,1.3,0.9
			c0.4,0.4,0.5,1,0.5,1.6c0,0.6-0.2,1.1-0.5,1.6c-0.3,0.5-0.8,0.8-1.4,1.1c-0.6,0.3-1.4,0.4-2.4,0.4C350,61.7,349.2,61.6,348.4,61.3
			z"/>
		<path class="st2" d="M364.8,58.6h-6.3l-1.4,3h-1.3l5.2-11.4h1.2l5.2,11.4h-1.3L364.8,58.6z M364.4,57.6l-2.7-6.1l-2.7,6.1H364.4z"
			/>
		<path class="st2" d="M369.3,50.3h1.2v10.3h6.4v1h-7.6V50.3z"/>
		<path class="st2" d="M379.8,60.5c-0.8-0.8-1.2-2.1-1.2-3.7v-6.5h1.2v6.5c0,1.3,0.3,2.3,0.9,3c0.6,0.6,1.5,1,2.6,1
			c1.1,0,2-0.3,2.6-1c0.6-0.6,0.9-1.6,0.9-3v-6.5h1.2v6.5c0,1.6-0.4,2.8-1.2,3.7c-0.8,0.8-2,1.3-3.4,1.3
			C381.8,61.7,380.6,61.3,379.8,60.5z"/>
		<path class="st2" d="M391.5,50.3h4.6c1.2,0,2.3,0.2,3.2,0.7c0.9,0.5,1.6,1.2,2.1,2c0.5,0.9,0.8,1.8,0.8,2.9c0,1.1-0.3,2.1-0.8,2.9
			s-1.2,1.5-2.1,2c-0.9,0.5-2,0.7-3.2,0.7h-4.6V50.3z M396.1,60.6c1,0,1.9-0.2,2.6-0.6c0.7-0.4,1.3-0.9,1.7-1.6
			c0.4-0.7,0.6-1.5,0.6-2.4c0-0.9-0.2-1.7-0.6-2.4c-0.4-0.7-1-1.2-1.7-1.6c-0.7-0.4-1.6-0.6-2.6-0.6h-3.4v9.3H396.1z"/>
	</g>
</g>
</svg>
